<svg version="1.2" xmlns="http://www.w3.org/2000/svg" viewBox="0 0 32 32" width="32" height="32"><style>.a{fill:#fff}</style><path fill-rule="evenodd" class="a" d="m15.6 2c3.6 0 7 0 7.6 0.1 0.8 0.1 1.1 0.2 2.1 0.6 0.6 0.4 1.4 0.9 1.8 1.2 0.4 0.4 1 0.9 1.2 1.3 0.3 0.3 0.6 0.8 0.8 1.2 0.1 0.3 0.4 0.9 0.9 2.2v14.7l-0.2 0.7c-0.2 0.4-0.4 1.1-0.6 1.4-0.2 0.3-0.5 0.9-0.8 1.3-0.2 0.3-0.8 0.9-1.1 1.3-0.4 0.3-1.1 0.8-1.6 1-0.4 0.2-1.2 0.6-2.8 1l-14.3-0.1-0.7-0.2c-0.5-0.2-1.2-0.5-1.7-0.7-0.6-0.4-1.1-0.7-1.7-1.3-0.4-0.5-1-1.1-1.2-1.4-0.2-0.4-0.6-1.1-1.3-2.9v-14.7l0.3-0.8c0.1-0.5 0.4-1.1 0.6-1.5 0.2-0.4 0.7-1.1 1.1-1.6 0.5-0.5 1.1-1.1 1.4-1.3 0.4-0.3 1.1-0.7 1.6-0.9 0.5-0.2 1.2-0.4 1.5-0.5 0.3 0 3.5-0.1 7.1-0.1zm-8.1 2c-0.3 0.2-0.9 0.6-1.3 0.9-0.4 0.3-1 0.8-1.2 1.1-0.3 0.4-0.7 1-0.9 1.5l-0.4 0.8v15.4c0.8 1.7 1.1 2.1 1.8 2.8 0.6 0.7 1 0.9 1.7 1.3 0.7 0.3 1.2 0.5 1.7 0.5 0.5 0.1 3.4 0.2 7.1 0.2 3.7 0 6.6-0.1 7.1-0.2q0.7-0.1 1.7-0.5c0.7-0.4 1.1-0.7 1.7-1.3 0.7-0.6 1-1.1 1.3-1.8l0.5-1v-15.4c-0.8-1.7-1.1-2.1-1.8-2.8-0.7-0.7-1-0.9-1.8-1.3l-1.1-0.5c-10.8-0.1-14.2-0.1-14.6-0.1q-0.8 0.1-1.5 0.4z"/><path fill-rule="evenodd" class="a" d="m15.7 7.3c0.4 0 0.9 0.2 1.2 0.3 0.3 0.2 0.8 0.4 1.4 1l0.5-0.5c0.3-0.2 0.8-0.5 1-0.6 0.3-0.2 0.6-0.2 0.6-0.2 0 0.1 0.2 0.4 0.6 1.5l-0.5 0.1c-0.3 0.1-0.8 0.3-1.1 0.5-0.5 0.1-0.6 0.2-0.5 0.4 0 0.1 0.1 0.6 0.2 1 0 0.5 0.1 1.3 0 1.8 0 0.6-0.1 1.3-0.2 1.6-0.2 0.4-0.4 0.9-0.6 1.1-0.2 0.3-0.5 0.6-0.8 0.8-0.3 0.2-0.9 0.4-1.2 0.4-0.5 0.1-0.9 0.1-1.4 0.1-0.5-0.1-0.7-0.1-0.8 0-0.1 0-0.2 0.3-0.3 0.5-0.1 0.2-0.1 0.4-0.1 0.5 0.1 0.1 0.2 0.2 0.4 0.2 0.1 0.1 0.9 0.2 1.7 0.3 0.8 0.1 1.7 0.2 2 0.3 0.3 0.1 0.6 0.2 0.8 0.3 0.2 0 0.4 0.2 0.6 0.4 0.1 0.2 0.4 0.5 0.5 0.7 0.2 0.3 0.2 0.6 0.2 1.6 0 1.1 0 1.2-0.3 1.7-0.1 0.3-0.4 0.6-0.7 0.8-0.2 0.1-0.5 0.3-0.7 0.4-0.1 0.1-0.6 0.3-1 0.4-0.4 0.1-1.2 0.2-1.7 0.2-0.7 0-1.3-0.1-1.9-0.3-0.4-0.1-1-0.3-1.3-0.4-0.3-0.2-0.6-0.5-0.8-0.7-0.2-0.3-0.3-0.6-0.4-0.9 0-0.2 0-0.6 0.1-0.9 0-0.3 0.3-0.6 1.5-1.9l-0.5-0.5c-0.4-0.4-0.5-0.5-0.5-1 0-0.3 0.1-0.7 0.2-0.9 0.1-0.2 0.4-0.6 1.1-1.5l-0.3-0.5c-0.3-0.2-0.5-0.7-0.6-1-0.1-0.3-0.3-0.9-0.4-1.3 0-0.5-0.1-1.1 0-1.6 0-0.5 0.1-1.3 0.2-1.7q0.3-0.7 0.7-1.3c0.3-0.3 0.7-0.6 1-0.8 0.3-0.1 0.7-0.3 1-0.3 0.2-0.1 0.8-0.1 1.1-0.1zm-1.2 2c-0.1 0.1-0.2 0.4-0.3 0.7-0.2 0.3-0.2 0.8-0.2 1.8 0 0.8 0 1.6 0.1 1.8 0 0.2 0.2 0.6 0.4 0.8 0.3 0.3 0.4 0.4 0.9 0.4 0.3 0 0.6-0.1 0.8-0.2 0.2-0.1 0.4-0.3 0.5-0.5 0.1-0.3 0.2-0.9 0.2-2.2 0-1.5 0-1.8-0.2-2.2-0.1-0.2-0.3-0.4-0.5-0.5-0.1 0-0.4-0.1-0.5-0.1-0.2-0.1-0.4-0.1-0.6 0-0.2 0-0.4 0.1-0.6 0.2zm-0.6 11.1c-0.2 0.2-0.4 0.5-0.5 0.7-0.1 0.2-0.1 0.5-0.1 0.7 0 0.1 0 0.3 0.1 0.4 0 0.1 0.2 0.2 0.4 0.3 0.4 0.2 0.6 0.3 1.8 0.3 1.1 0 1.4-0.1 1.8-0.2 0.3-0.2 0.5-0.4 0.6-0.5 0-0.1 0.1-0.4 0.1-0.6q0-0.4-0.3-0.7c-0.2-0.3-0.5-0.4-1.1-0.5-0.4-0.1-1.1-0.2-1.6-0.2l-0.8-0.1z"/></svg>