<svg version="1.2" xmlns="http://www.w3.org/2000/svg" viewBox="0 0 1218 236" width="1218" height="236"><style>.a{fill:#fff}</style><path fill-rule="evenodd" class="a" d="m491.3 0.1c6.9-0.1 8.3 0.2 12.9 3 2.9 1.7 6.1 3.8 7.2 4.8 1 0.9 2.7 3.4 3.9 5.6 1.5 2.9 2.1 5.9 2.1 10.5 0 4.7-0.6 7.7-2.2 10.8-1.2 2.3-3.7 5.3-5.4 6.7-1.8 1.3-5.7 3.4-8.5 4.5-2.9 1.1-7.2 2-9.5 2-2.4 0-6.3-0.7-8.8-1.5-2.5-0.9-6.2-2.7-8.2-4-2.1-1.4-5-4.6-6.5-7.3-2.2-3.8-2.8-6-2.8-11.3 0-5.6 0.5-7.3 3-11.5 2.1-3.4 5-6.1 9-8.6 5.5-3.4 6.6-3.7 13.7-3.7zm399.6 61c4.5 0 11.7 0.6 15.9 1.4 4.3 0.8 10.3 2.5 13.3 3.6 3 1.1 7.3 3 9.5 4.1 2.2 1.1 6 3.6 8.5 5.6 2.5 1.9 5.7 4.9 7.2 6.6 1.6 1.7 4 5.1 5.5 7.6 1.4 2.5 3.5 7 4.5 10 1 3 1.8 7.4 1.8 14l-43.4-0.5-0.9-3.5c-0.5-1.9-2.1-5-3.6-6.8-1.4-1.9-5.1-4.6-8.1-6-4.5-2.1-6.9-2.6-13-2.6-5.3 0.1-8.8 0.7-12 2.1-2.5 1.1-5.3 2.9-6.2 3.9-1 1-2.2 3.5-2.7 5.4-0.8 2.6-0.7 4.3 0.4 6.7 0.8 1.8 3 4.2 4.8 5.3 1.7 1.1 5.5 2.9 8.2 3.9 2.8 1 14.9 4.4 27 7.6 12.1 3.1 24.7 6.9 28 8.5 3.3 1.6 7.8 4.4 10 6.3 2.2 1.8 5.7 5.8 7.7 8.8 2 3 4.5 8.7 5.7 12.9 1.2 4.1 2.1 9.7 2.1 12.5 0 2.7-0.6 7.9-1.4 11.5-0.7 3.6-2.2 8.5-3.3 11-1 2.5-3.9 7.1-6.4 10.4-2.6 3.5-7 7.5-10.9 10.1-3.6 2.3-9.2 5.2-12.5 6.4-3.3 1.2-9 2.9-12.7 3.7-3.9 0.8-12.4 1.4-20 1.4-7.3 0-16-0.5-19.3-1-3.3-0.6-9.4-2.2-13.5-3.5-4.1-1.4-10.2-4.2-13.5-6.3-3.3-2.1-7.7-5.6-9.9-7.8-2.1-2.1-5.3-6.2-7.1-8.9-1.7-2.8-3.9-7.3-4.9-10-0.9-2.8-2-8.3-3.1-19.5h41l1.2 4.2c0.6 2.4 2.6 6.3 4.5 8.8 2.2 2.9 5.5 5.6 9.3 7.5 5.1 2.6 6.9 3 13.9 3 5.2 0 9.7-0.6 12.6-1.7 2.5-0.9 6-3.3 7.8-5.2 2.5-2.8 3.2-4.5 3.2-7.6 0-2.8-0.7-4.9-2.3-6.8-1.6-1.8-5.1-3.6-10.3-5.4-4.3-1.4-12.8-3.8-18.9-5.3-6-1.4-14.1-3.6-18-4.7-3.8-1.1-11.5-4.2-17-6.8-7.1-3.3-11.4-6.1-14.9-9.6-2.7-2.7-6.1-7.4-7.5-10.4-2.4-5.1-2.6-6.5-2.6-20 0-13.3 0.2-15 2.5-20 1.3-3 3.6-7.3 5.1-9.5 1.5-2.2 4.5-5.7 6.8-7.8 2.3-2 5.8-4.8 7.9-6 2-1.3 7.2-3.8 11.5-5.5 4.2-1.8 11.4-3.8 16-4.6 4.5-0.8 11.9-1.4 16.4-1.5zm-873.2 93.4l0.5 17.5h21v8h-21v20.2c0 16.1 0.3 20.7 1.4 22.3 1.2 1.7 2.9 2.1 19.1 3l0.5 8.5-10.2-0.3c-6.5-0.2-11.4-0.8-13.2-1.7-1.6-0.8-3.8-2.6-4.8-4-1.1-1.4-2.3-5.4-2.8-9.5-0.5-3.8-0.9-14.1-1-38.5h-3.5c-3.4 0-3.5-0.1-3.5-4 0-3.9 0.1-4 7-4l-0.2-8.3c-0.1-4.6 0.3-8.7 0.7-9.1 0.5-0.4 3-0.6 10-0.1zm133 16.8c6.5 0.2 8.9 0.8 12.8 3 2.6 1.5 5.8 4.2 7.1 5.9 1.4 1.8 3.1 5.1 3.9 7.3 0.8 2.2 1.7 7.2 2.2 18l-46.5 0.5 0.6 3.7c0.3 2.1 1.6 5.7 3 8 1.5 2.8 3.9 5.1 6.7 6.5 3.5 1.9 5.7 2.3 12.7 2.2 6.1-0.1 10-0.7 14-2.3 3-1.1 5.8-2.1 6.3-2.1 0.4 0 0.7 2 0.7 9l-8.2 2.6c-6.7 2.2-9.6 2.6-15.3 2.2-3.8-0.3-9.5-1.4-12.5-2.6-3-1.2-7.3-3.8-9.4-5.9-2.2-2.1-5-6.1-6.2-8.8-1.2-2.8-2.5-7.3-2.9-10-0.3-2.8-0.1-8 0.4-11.8 0.6-3.7 1.9-8.4 3-10.5 1-2 3.6-5.4 5.7-7.5 2.2-2.1 6.2-4.6 8.9-5.7 3.8-1.6 6.9-2 13-1.7zm-14.3 12.9c-1.3 1.3-2.9 3.2-3.5 4.3-0.5 1.1-1.4 3.5-1.9 5.2l-0.8 3.3c36 0 36 0 36-2.3 0-1.2-1-4.2-2.2-6.7-1.7-3.3-3.5-5.1-6.8-6.8-2.5-1.2-5.8-2.2-7.5-2.2-1.6 0.1-4.8 0.7-7 1.6-2.2 0.8-5.1 2.4-6.3 3.6zm412.8-170.2h46l0.3 83.2c0.2 78.3 0.3 83.4 2 85.8 1 1.4 3 3.3 4.5 4.2 1.8 1.2 4.7 1.8 15.2 1.8v40h-14.2c-7.9 0-16.8-0.4-19.8-1-3-0.6-8.2-2.3-11.5-3.9-3.3-1.5-8-4.8-10.5-7.3-2.5-2.5-5.6-6.8-6.9-9.4-1.4-2.7-3-7.2-3.8-9.9-1-4-1.3-23.8-1.3-94.3zm205 0h47v215l-39.4-0.5-0.7-3.5c-0.4-1.9-1-6-1.3-9.2-0.4-4.2-1-5.8-2.1-5.8-0.8 0-3 2.2-4.8 4.8-1.9 2.6-5.7 6.4-8.5 8.5-2.9 2.1-6.9 4.5-8.9 5.4-2.1 0.8-6 2.2-8.8 3-2.7 0.7-9.5 1.3-15 1.3-6.7 0-12.6-0.6-18-2-4.4-1.1-10.2-3.1-13-4.3-2.7-1.3-7.7-4.1-11-6.3-3.3-2.2-8.6-6.9-11.8-10.4-3.2-3.6-7.5-9.4-9.6-13-2.1-3.5-5.1-9.8-6.5-14-1.5-4.1-3.2-9.7-3.7-12.5-0.6-2.7-1.4-9.2-1.9-14.5-0.5-5.5-0.5-13.8 0.1-20 0.5-5.7 1.8-14.1 3-18.5 1.1-4.4 3.9-11.6 6.1-16 2.2-4.4 5.6-10.2 7.6-12.9 2.1-2.7 6.6-7.5 10.2-10.7 3.7-3.4 10-7.6 14.5-9.8 4.4-2.2 11.3-4.6 15.3-5.5 3.9-0.9 10.4-1.6 14.2-1.6 3.9 0 10.5 0.8 14.8 1.6 4.5 1 10.8 3.3 15.2 5.5 4.1 2.2 9.2 5.5 11.3 7.4 2 2 4.2 3.3 4.7 3 0.6-0.3 1-12.1 1-32.5zm-50.5 89.3c-2.7 1.3-7.2 4.9-9.8 7.9-2.8 3.1-5.7 7.7-6.8 10.8-1.2 3.1-2.5 8-3 11-0.5 3.1-0.9 8.9-0.9 13 0 4.2 0.4 10 0.9 13 0.5 3.1 1.9 8.2 3.2 11.5 1.6 4.3 3.9 7.7 7.8 11.7 3.1 3 7.4 6.3 9.6 7.3 2.2 0.9 6.5 2.1 9.5 2.5 3 0.5 8.1 0.4 11.3-0.1 3.1-0.5 6.7-1.4 8-2.1 1.2-0.7 3.8-2.4 5.7-3.8 1.9-1.5 5.1-5.1 7.1-8 2-3 4.5-7.9 5.5-10.9 1.6-4.6 1.9-8.3 1.9-21.6-0.1-13.4-0.4-16.8-2.1-21.4-1.1-3.1-3.5-7.7-5.2-10.3-1.8-2.6-5.1-6.1-7.4-7.8-2.4-1.7-5.6-3.7-7.3-4.4-1.6-0.7-5.2-1.5-8-1.7-2.7-0.3-7.2-0.2-10 0.2-2.7 0.3-7.2 1.8-10 3.2zm-471.5-42c7.8 0.3 10.4 0.8 14.5 2.9 2.8 1.4 6.2 3.9 7.5 5.5 1.4 1.5 3.6 5.5 4.9 8.8 1.9 4.7 2.5 8.7 2.9 17.5 0.2 6.4-0.1 17.8-0.7 25.5-0.7 7.7-2.3 23-3.7 34-1.3 11.1-2.4 25.5-2.4 32.3 0 8.7 0.4 13.3 1.5 15.7 0.8 2 2.4 4 3.5 4.5 1.1 0.6 3.2 1 4.8 1 1.5 0 4.5-0.8 6.7-1.9 2.2-1 5.7-3.7 7.8-6 2-2.2 5.5-7.5 7.6-11.8 2.1-4.3 5.1-11.6 6.6-16.3 1.4-4.6 3.3-11.4 4-15 0.8-3.5 2-10.7 2.9-16 0.8-5.2 2-14.6 2.7-21 0.7-6.3 1.3-21.6 1.4-56.5h42l-0.1 21c-0.1 14.3-1.1 32.7-3.3 57-1.7 19.8-3.1 39.8-3.1 44.3 0 5.8 0.6 9.8 2 13.5 1.4 3.8 2.9 5.8 5.2 7.1 2.5 1.5 4.5 1.8 8.3 1.4 2.8-0.2 7.5-1.8 10.5-3.3 3.2-1.7 9.2-6.6 14.6-11.9 5.4-5.5 11-12.2 14-17.1 2.7-4.4 6.2-11.1 7.7-15 1.6-3.8 3.8-10.6 4.9-15 1.6-5.8 2.1-11.2 2.2-20 0-10-0.3-12.9-2.1-17.5-1.2-3-3-6.5-5.8-10.1l-4.5 2.6c-3.4 1.9-5.9 2.5-10.2 2.5-3.7 0-7.2-0.6-9.5-1.8-2.1-1.1-5.3-3.5-7-5.5-1.9-2.1-3.6-5.2-3.9-7.4-0.4-2.1-0.4-5.7 0-8 0.3-2.3 1.4-5.9 2.5-8 1-2.1 3.6-5.2 5.7-7 2.2-1.7 5.9-3.7 8.4-4.4 2.5-0.7 7.6-0.9 11.5-0.7 5.2 0.4 8.6 1.4 13.3 3.7 3.4 1.7 7.9 4.9 10 7.1 2 2.2 5.3 6.5 7.2 9.7 1.9 3.2 4.5 9.4 5.8 13.8 1.3 4.4 2.7 12.1 3.1 17 0.4 5 0.3 13.1-0.1 18-0.5 5-1.9 13.1-3.2 18-1.3 5-4.3 13.3-6.7 18.5-2.3 5.3-5.9 12.4-7.8 15.8-2 3.4-5.6 9-8.1 12.4-2.5 3.4-7.4 9.2-11 12.8-3.6 3.7-9 8.4-12 10.6-3 2.2-7.1 5-9 6.1-1.9 1.1-6.8 3.2-10.7 4.7-4 1.5-11.7 3.2-17 3.8-7.1 0.9-11.2 1-14.8 0.2-2.7-0.6-6.8-1.9-9-2.9-2.2-1.1-5.9-3.9-8.3-6.4-2.4-2.5-5.2-6.8-6.2-9.5-1-2.8-2.2-9.1-3.5-23l-4.9 10c-3.8 7.8-6.3 11.4-11.5 16.5-4.2 4.2-8.9 7.8-13.1 9.8-3.6 1.7-9.4 3.9-13 4.8-4.8 1.2-8.7 1.4-14.7 1-4.8-0.4-10.7-1.6-14-2.9-3.5-1.3-7.5-3.9-10-6.5-2.4-2.3-5.6-7.1-7.3-10.5-1.7-3.4-3.7-9.8-4.5-14.2-0.8-4.4-1.4-12.3-1.5-17.5 0-5.3 0.5-14.5 1-20.5 0.6-6.1 2-18.2 3.1-27 1.1-8.8 2.3-20.5 2.6-26 0.3-5.5 0.3-11.3 0-12.8-0.4-1.7-1.6-3-2.9-3.3-1.3-0.4-3.3-0.2-4.5 0.5-1.3 0.6-3.7 3-5.3 5.3-1.7 2.3-4 7.2-5.1 10.8-1.2 3.5-2.5 6.9-3 7.5-0.6 0.6-3.7 0.1-9-1.5-4.5-1.4-8.3-2.8-8.4-3-0.2-0.3 0.8-3.9 2.1-8 1.3-4.2 3.6-9.8 5.1-12.5 1.4-2.8 4.3-7.3 6.4-10 2-2.8 5.4-6.7 7.5-8.6 2.2-2 5.5-4.7 7.4-6 1.9-1.3 5.8-3.2 8.5-4.2 3.9-1.4 7.2-1.7 14.5-1.5zm282.5 4.2l0.5 163.5h-47l-0.2-81.3c-0.1-44.7 0.3-81.6 0.7-82 0.5-0.4 11-0.6 46-0.2zm-462.5 82.5h11v32l3.5-3c1.9-1.6 5.2-3.7 7.3-4.5 2.5-1.1 5.8-1.5 10.2-1.3 4.8 0.3 7.6 1.1 10.5 2.9 2.6 1.7 4.9 4.3 6.5 7.5 2.4 4.8 2.5 5.6 3 52.4h-10v-20c0-12.8-0.4-21.6-1.2-24.6-0.8-2.8-2.4-5.6-4-7-2.2-1.9-4-2.4-8.5-2.4-4.4 0-6.6 0.5-9.2 2.3-1.9 1.2-4.4 3.5-5.5 5.1-2 2.6-2.1 4.2-2.6 46.6h-11z"/><path fill-rule="evenodd" class="a" d="m1050.5 12.2l55-0.1c52.6 0 55.3 0 61 2 3.3 1.1 9.4 3.6 13.5 5.6 5.4 2.7 9.8 5.9 15.9 11.7 4.7 4.6 10 10.9 12.2 14.6 2.1 3.6 5 10.1 9.3 22.5l0.9 105-3.3 10.5c-1.7 5.8-4.6 13-6.3 16-1.7 3-7.2 9.6-12.2 14.5-5.2 5.3-11.3 10.3-14.5 12-3 1.6-9.1 4.1-21.5 8.5h-109l-8-2.8c-4.4-1.6-10.4-4.1-13.3-5.5-2.8-1.5-9.1-6.4-13.8-10.9-4.7-4.6-10.1-10.8-11.9-13.8-1.9-3-4.8-9.3-9.9-22.5l-0.6-106 2.6-9.5c1.4-5.2 4-12.2 5.7-15.5 1.8-3.2 7-9.9 11.7-14.8 5.6-5.9 10.7-10.1 15-12.5 3.6-2 9.9-4.8 14-6.3zm35.4 39c-2.6 4.6-6.2 12.4-8.2 17.3-1.9 5-3.9 11.4-4.4 14.3-0.4 2.9-0.5 5.5 0 5.8 0.4 0.2 2-0.5 3.7-1.6 1.7-1.1 3-2.3 3-2.7 0-0.5 4.6-5.4 10.2-11 5.7-5.6 12.9-12.2 16.1-14.7 3.9-3.1 5.7-5.3 5.7-6.8 0-1.3-0.7-3.4-1.6-4.8-1-1.4-3.5-4.4-5.8-6.8-2.4-2.4-5-4.2-6.3-4.2-1.2 0-3.4 1.5-5 3.4-1.5 1.9-4.9 7.2-7.4 11.8zm39.6 9.2c-3.3 1.5-7.5 3.8-9.3 5.2-1.7 1.3-3.2 3.1-3.2 3.9 0 0.8 1.2 2.3 2.7 3.3 2.3 1.4 5.6 1.7 21.5 2l18.8 0.2c1.5-3.9 2-7.6 1.9-10.7 0-3.2-0.5-7.3-1.2-9.2-0.7-1.9-2.2-3.7-3.3-4.1-1.5-0.5-5.4 0.5-12 2.9-5.5 2.1-12.6 5-15.9 6.5zm-77.2 10.6c0.4 9.6 1.4 16.4 3.2 23.5 1.4 5.5 3.6 11.8 4.8 14 1.2 2.2 2.6 4 3.1 4 0.5 0 1.3-1.3 1.8-3 0.4-1.6 1.5-8.2 2.4-14.5 0.9-6.3 2.9-15.8 4.5-21 1.6-5.2 2.9-10.4 2.9-11.5 0.1-1.1-0.5-2.5-1.2-3.2-0.7-0.7-5.3-2.1-10.1-3.2-8.2-1.8-8.9-1.8-10.4-0.2-1.4 1.4-1.5 3.6-1 15.1zm84.5 14.8c1.5 1 6.5 3.9 11.2 6.5 4.7 2.5 13.3 7.9 19.3 12.1 5.9 4.2 11.4 7.6 12.2 7.6 0.8 0 2.9-1.7 4.5-3.7 1.7-2.1 4.2-6 5.6-8.8 1.3-2.7 2.2-5.7 1.9-6.5-0.2-0.8-2.1-2.3-4-3.2-1.9-1-8.1-3-13.7-4.4-7.7-1.9-13.9-2.7-24.4-3.1-9.9-0.4-14.2-0.2-14.7 0.6-0.4 0.6 0.5 1.9 2.1 2.9zm-110.1 12c-1 1-1.8 2.7-1.7 4 0 1.2 2 4.8 4.4 8 2.5 3.1 7.5 8.9 11.3 12.7 3.7 3.9 9.3 9 12.3 11.4 3 2.4 7.2 5.2 9.2 6.2 3.3 1.7 3.9 1.7 4.3 0.4 0.3-0.8-1.7-5.7-4.4-10.7-2.7-5.1-6.6-13.8-8.6-19.3-2-5.5-4.7-12.1-5.8-14.8-1.2-2.6-2.7-4.9-3.3-5.1-0.7-0.2-4.5 1-8.5 2.6-4.1 1.6-8.2 3.7-9.2 4.6zm129.7 18.2c2.5 4.7 6.6 14.1 9.1 21 2.6 6.9 5.3 13.7 6.1 15.3 0.8 1.5 2.1 2.7 2.9 2.7 0.8 0 4.3-1 7.8-2.3 3.4-1.3 7.4-3.1 9-4 1.7-1.1 2.7-2.5 2.7-3.9-0.1-1.3-2.3-5.2-5-8.8-2.7-3.6-8.8-10.4-13.7-15.1-4.8-4.8-11.3-10.3-14.3-12.3-3-2-6.3-3.6-7.2-3.6-1 0-1.8 0.6-1.8 1.3 0 0.6 2 5 4.4 9.7zm-4.4 27.9c-0.6 4.7-1.9 12.7-3 17.6-1 5-2.8 11.9-3.9 15.5-1.6 5.2-1.7 6.9-0.8 8.2 0.7 1 3 2.4 5.2 3.2 2.2 0.7 6.6 1.7 9.8 2 5 0.5 5.8 0.4 6.7-1.4 0.5-1.1 1-5.5 1-9.7 0-4.3-0.5-10.7-1.1-14.3-0.5-3.6-2.2-10.5-3.6-15.5-1.4-4.9-3.2-10.5-4.1-12.4-1-1.9-2.2-3.6-2.8-3.8-0.6-0.2-1.4 0.1-1.8 0.8-0.3 0.6-1 5-1.6 9.8zm-123.4 2.9c-0.9 1.7-1.6 4-1.6 5 0 0.9 1.2 2.4 2.7 3.4 1.6 0.9 5.7 2.5 9.3 3.6 3.6 1.1 9.2 2.5 12.5 3.1 3.3 0.6 10.8 1.5 16.8 2.1 7.1 0.7 11.5 0.7 13.2 0 1.4-0.5 2.3-1.6 2.2-2.2-0.2-0.7-4.6-3.6-9.8-6.3-5.2-2.8-11.9-6.7-14.9-8.6-3-2-8.2-5.7-11.5-8.3-3.3-2.5-7-4.6-8.2-4.6-1.4 0-3.3 1.6-5.6 4.8-1.9 2.6-4.2 6.2-5.1 8zm83.1 37.7c-4.7 3.9-8.9 7.6-9.2 8.3-0.3 0.6 0.3 2.9 1.4 5 1 2 3.9 5.6 6.5 8 3 2.7 5.4 4.1 6.8 4 1.5-0.2 3.5-2.1 5.6-5.3 1.8-2.7 5.7-9.7 8.6-15.5 3-5.8 6.1-12.7 7.1-15.5 0.9-2.7 2-7 2.5-9.4 0.4-2.4 0.6-5 0.4-5.8-0.2-0.7-0.8-1.3-1.3-1.3-0.5 0-5.1 4.6-10.4 10.3-5.2 5.6-13.3 13.4-18 17.2zm-54.9-3c0.1 4.4 0.6 9.1 1 10.3 0.4 1.3 1.6 2.6 2.7 2.9 1.1 0.2 6-0.9 11-2.5 5-1.6 12.2-4.4 16-6.1 3.8-1.8 8.5-4.3 10.3-5.7 1.7-1.3 3.2-3.2 3.2-4.1 0-1-1.2-2.4-2.7-3.2-2-1-8.1-1.5-20.8-1.8-13.8-0.4-18.3-0.2-19.5 0.8-1 1-1.3 3.4-1.2 9.4z"/></svg>