<svg version="1.2" xmlns="http://www.w3.org/2000/svg" viewBox="0 0 1028 236" width="1028" height="236">
	<style>
		.s0 { fill: #ffffff } 
	</style>
	<path id="Path 0" fill-rule="evenodd" class="s0" d="m311.75-0.02c6.44-0.02 8.6 0.42 12.75 2.58 2.75 1.43 6.28 3.81 7.84 5.27 1.56 1.47 3.7 4.36 4.75 6.42 1.24 2.43 1.9 5.78 1.89 9.5-0.01 3.35-0.78 7.42-1.83 9.75-0.99 2.2-3.61 5.58-5.83 7.5-2.21 1.92-6.45 4.3-9.42 5.27-2.97 0.97-6.97 1.77-8.9 1.77-1.93 0-5.93-0.8-8.9-1.77-2.97-0.97-7.21-3.35-9.42-5.27-2.22-1.92-4.84-5.3-5.83-7.5-1.04-2.29-1.81-6.34-1.81-9.5 0-3.18 0.77-7.19 1.82-9.5 1-2.2 3.58-5.53 5.73-7.41 2.15-1.87 5.15-3.79 6.66-4.25 1.51-0.46 2.75-1.29 2.75-1.84 0-0.58 3.27-1.01 7.75-1.02zm603.5 12.1c40.43-0.07 50.07 0.19 56.5 1.48 4.38 0.88 11.77 3.49 17 6 7.45 3.57 10.78 5.95 17.08 12.19 4.3 4.26 8.96 9.55 10.35 11.75 1.39 2.2 3.56 6.25 4.83 9 1.26 2.75 3.2 8.15 4.32 12 1.87 6.49 2.04 10.47 2.39 54.5 0.24 30.18 0 49.96-0.67 54.25-0.58 3.71-2.17 10.24-3.54 14.5-1.37 4.26-4.13 10.45-6.13 13.75-2 3.3-7.18 9.49-11.51 13.75-6.31 6.21-9.71 8.63-17.12 12.19-5.09 2.44-10.94 4.69-13 5-2.06 0.31-3.75 1.01-3.75 1.56 0 0.65-19.33 1-56 1-36.67 0-56-0.35-56-1 0-0.55-1.69-1.25-3.75-1.56-2.06-0.31-7.91-2.56-13-5-7.45-3.58-10.77-5.95-17.08-12.19-4.3-4.26-8.96-9.55-10.35-11.75-1.39-2.2-3.46-6.03-4.6-8.5-1.13-2.47-3-7.88-4.14-12-1.99-7.16-2.08-9.84-2.07-59.5 0.02-47.26 0.19-52.64 1.87-59 1.01-3.85 2.6-8.8 3.53-11 0.94-2.2 3.09-6.25 4.8-9 1.7-2.75 6.63-8.49 10.94-12.75 6.3-6.22 9.67-8.63 17.1-12.2 5.09-2.44 12.4-5.1 16.25-5.91 5.58-1.18 16.9-1.49 55.75-1.56zm-16.51 32.92c-1.92 3.02-4.71 7.97-6.2 11-1.49 3.02-3.85 8.42-5.23 12-1.38 3.57-3.15 8.86-3.91 11.75-0.77 2.89-1.4 6.37-1.4 7.75 0 1.83 0.53 2.5 2 2.5 1.1 0 2.6-1.01 3.33-2.25 0.74-1.24 6.03-7.02 11.75-12.86 5.73-5.84 13.46-12.92 17.17-15.75 5.16-3.93 6.75-5.73 6.75-7.64 0-1.53-1.93-4.82-5-8.5-2.75-3.3-5.9-6.45-7-7-1.1-0.55-2.6-1-3.33-1-0.73 0-2.26 1.01-3.39 2.25-1.13 1.24-3.63 4.72-5.54 7.75zm44.26 11.38c-3.58 1.49-9.31 4.26-12.75 6.16-3.44 1.9-6.64 4.25-7.11 5.21-0.48 0.96-0.71 2.31-0.5 3 0.2 0.69 1.71 1.92 3.36 2.75 2.34 1.17 7.13 1.51 21.75 1.53l18.75 0.03c2.13-4.32 2.3-7.47 1.8-13.31-0.5-5.97-1.19-8.73-2.5-10-0.99-0.96-2.36-1.72-3.05-1.68-0.69 0.04-3.95 0.87-7.25 1.84-3.3 0.97-8.92 2.98-12.5 4.47zm-85.72 13.62c0.37 5.77 1.57 14.55 2.66 19.5 1.1 4.95 2.66 11.25 3.47 14 0.81 2.75 2.51 6.27 3.78 7.83 1.88 2.3 2.53 2.58 3.5 1.5 0.66-0.73 1.68-5.38 2.27-10.33 0.6-4.95 1.58-11.7 2.18-15 0.6-3.3 2.39-10.05 3.99-15 1.59-4.95 2.89-9.79 2.88-10.75 0-0.96-1.02-2.38-2.26-3.16-1.24-0.77-5.85-2.13-10.25-3.01-4.4-0.89-8.33-1.6-8.73-1.59-0.4 0-1.5 1.25-2.45 2.76-1.46 2.35-1.61 4.29-1.04 13.25zm82.73 13.75c0 0.96 1.01 2.23 2.25 2.82 1.23 0.58 6.74 3.39 12.24 6.22 5.5 2.84 14.27 8.56 19.5 12.7 5.23 4.15 10.29 7.53 11.25 7.53 0.96-0.01 3.27-1.93 5.12-4.27 1.86-2.34 4.52-6.5 5.92-9.25 1.52-3 2.27-5.72 1.88-6.79-0.37-0.99-2.02-2.41-3.67-3.16-1.65-0.75-5.48-2.12-8.5-3.05-3.02-0.93-8.42-2.28-12-3-3.58-0.72-11.67-1.55-18-1.83-6.33-0.29-12.51-0.33-13.75-0.09-1.32 0.24-2.25 1.14-2.24 2.17zm-108.36 14.01c-1.26 1.18-1.67 2.55-1.29 4.24 0.32 1.37 2.42 4.97 4.68 8 2.26 3.03 7.78 9.26 12.28 13.85 4.5 4.59 11.33 10.56 15.18 13.27 3.85 2.71 8.01 4.92 9.25 4.91 1.32-0.02 2.25-0.65 2.25-1.53 0-0.82-1.66-4.31-3.68-7.75-2.03-3.44-4.89-8.95-6.36-12.25-1.47-3.3-4.38-10.95-6.46-17-2.08-6.05-4.5-11.57-5.39-12.27-0.89-0.69-2.06-1.24-2.61-1.21-0.55 0.03-4.38 1.39-8.5 3.02-4.13 1.63-8.33 3.76-9.35 4.72zm127.51 13.24c1.19 1.92 3.83 6.87 5.87 11 2.04 4.12 5.41 12.45 7.47 18.5 2.07 6.05 4.15 11.79 4.63 12.75 0.54 1.08 2.01 1.75 3.87 1.75 1.65 0 5.36-0.93 8.25-2.07 2.89-1.13 6.71-3.04 8.49-4.25 1.79-1.2 3.25-2.97 3.25-3.93 0.01-0.96-2.35-4.84-5.24-8.61-2.89-3.78-7.3-9.07-9.81-11.75-2.52-2.69-7.02-7.07-10-9.73-2.99-2.67-7.69-6.14-10.44-7.72-2.75-1.59-5.79-2.89-6.75-2.91-1.01-0.02-1.75 0.71-1.75 1.72 0.01 0.96 0.98 3.32 2.16 5.25zm-1.25 28.18c0.05 1.83-0.8 8.72-1.88 15.32-1.08 6.6-3.11 15.37-4.51 19.5-1.4 4.12-2.54 8.51-2.53 9.75 0 1.24 1.02 2.89 2.26 3.67 1.24 0.79 4.95 1.91 8.25 2.51 3.3 0.59 7.46 1.08 9.25 1.08 2.53-0.01 3.47-0.56 4.25-2.51 0.55-1.38 1-4.75 1-7.5 0-2.75-0.48-8.49-1.07-12.75-0.59-4.26-1.91-10.9-2.93-14.75-1.02-3.85-2.81-9.7-3.98-13-1.17-3.3-2.66-6.58-3.32-7.29-0.66-0.72-1.52-1.28-1.92-1.25-0.4 0.02-1.23 0.91-1.84 1.97-0.62 1.07-1.08 3.43-1.03 5.25zm-121.27 3.07c-1.85 2.89-3.66 6.15-4.03 7.25-0.36 1.1-0.31 2.81 0.11 3.8 0.44 1.02 3.64 2.86 7.28 4.19 3.58 1.31 8.3 2.87 10.5 3.47 2.2 0.6 8.95 1.75 15 2.57 6.05 0.81 13.7 1.5 17 1.52 4.24 0.03 6.37-0.41 7.25-1.51 0.69-0.84 1.02-1.99 0.75-2.54-0.27-0.55-5.34-3.46-11.25-6.47-5.91-3.01-13.69-7.62-17.29-10.25-3.59-2.63-8.32-6.25-10.5-8.04-2.18-1.79-4.75-3.25-5.71-3.25-0.96 0.01-2.65 0.91-3.75 2.01-1.1 1.1-3.51 4.36-5.36 7.25zm89.86 33.93c-2.75 2.6-7.76 6.88-11.12 9.52-3.37 2.64-6.63 5.59-7.25 6.55-0.9 1.39-0.64 2.63 1.25 6 1.32 2.34 4.47 6.16 7 8.5 2.54 2.34 5.52 4.25 6.62 4.25 1.37 0 3.39-2.13 6.4-6.75 2.42-3.71 6.47-10.69 9-15.5 2.53-4.81 5.73-12.24 7.12-16.5 1.38-4.26 2.51-9.66 2.5-12-0.01-2.94-0.45-4.25-1.4-4.25-0.76 0-4.48 3.48-8.25 7.73-3.78 4.25-9.12 9.85-11.87 12.45zm-63.62-2.43c-0.66 1.69-0.84 5.84-0.46 10.75 0.35 4.4 1.18 8.58 1.85 9.29 0.68 0.72 2.69 1.28 4.48 1.25 1.79-0.02 7.64-1.67 13-3.66 5.36-2 12-4.75 14.75-6.12 2.75-1.36 6.46-3.56 8.25-4.87 1.79-1.32 3.25-3.29 3.25-4.39 0-1.22-1.17-2.58-3-3.5-2.35-1.18-7.11-1.5-22.02-1.5h-19.02zm-811.38-112.73c3.85-0.02 9.36 0.64 12.25 1.47 3.24 0.93 6.88 2.99 9.5 5.36 2.34 2.13 5.26 6.17 6.5 9 1.24 2.83 2.79 8.86 3.44 13.4 0.92 6.42 0.91 11.9-0.06 24.75-0.69 9.08-2.35 25.28-3.71 36-1.35 10.72-2.74 24.68-3.08 31-0.35 6.32-0.34 13.64 0.02 16.25 0.39 2.86 1.64 5.94 3.14 7.75 1.83 2.19 3.38 3.01 5.75 3.02 1.79 0.02 4.94-0.66 7-1.5 2.06-0.83 5.66-3.48 8-5.87 2.34-2.39 5.78-7.45 7.66-11.25 1.87-3.79 4.71-10.72 6.3-15.4 1.59-4.68 3.78-12.78 4.87-18 1.09-5.22 2.62-13.78 3.4-19 0.78-5.22 1.93-16.03 2.56-24 0.63-7.97 0.99-22.26 0.81-31.74-0.27-13.12-0.05-17.36 0.9-17.75 0.69-0.28 10.03-0.51 40.25-0.51l1 2.5c0.55 1.37 1 6.44 0.99 11.25 0 4.81-0.67 17.75-1.47 28.75-0.81 11-2.42 30.35-3.58 43-1.15 12.65-2.18 28.18-2.27 34.5-0.13 8.8 0.24 12.61 1.58 16.25 0.96 2.61 2.99 5.67 4.5 6.78 1.82 1.35 4.28 2.04 7.25 2.03 3.14-0.01 6.62-1.07 11.5-3.52 3.85-1.93 9.48-5.69 12.5-8.36 3.03-2.66 8.03-8.18 11.13-12.26 3.09-4.08 7.22-10.35 9.16-13.92 1.95-3.57 4.88-10.32 6.51-15 1.64-4.68 3.52-11.88 4.19-16 0.67-4.13 1.03-11.78 0.8-17-0.29-6.55-1.08-11.21-2.57-15-1.19-3.03-2.73-6.29-3.44-7.25-1.2-1.64-1.58-1.59-6.28 0.82-4.18 2.15-6.08 2.52-11.57 2.25-5.13-0.25-7.48-0.92-10.75-3.07-2.3-1.51-4.84-3.76-5.65-5-0.81-1.24-1.89-4.5-2.4-7.25-0.69-3.7-0.55-6.43 0.53-10.5 0.81-3.03 2.56-6.96 3.9-8.75 1.34-1.79 4.8-4.4 7.69-5.81 4.61-2.25 6.29-2.52 13.78-2.25 7.14 0.26 9.57 0.82 15 3.46 4.21 2.05 8.16 5.01 11.32 8.5 2.67 2.94 6.34 8.5 8.15 12.35 1.81 3.85 4.05 9.92 4.97 13.5 0.92 3.58 1.92 11.45 2.22 17.5 0.38 7.89 0.07 13.69-1.12 20.5-0.91 5.22-3.02 13.55-4.69 18.5-1.67 4.95-4.75 12.6-6.85 17-2.1 4.4-6.65 12.28-10.12 17.5-3.49 5.25-10.35 13.54-15.36 18.54-4.98 4.97-11.97 10.96-15.55 13.3-3.57 2.35-9.99 5.59-14.25 7.21-4.26 1.62-11.91 3.49-17 4.16-7.44 0.97-10.52 0.96-15.75-0.1-3.57-0.71-7.74-1.93-9.25-2.71-1.51-0.77-4.37-2.86-6.36-4.65-1.98-1.79-4.54-4.82-5.69-6.75-1.14-1.93-2.66-5.75-3.38-8.5-0.71-2.75-1.3-7.36-1.31-10.25 0-2.89-0.46-5.47-1.01-5.75-0.55-0.28-2.69 2.93-4.75 7.11-2.06 4.19-5.72 9.93-8.13 12.75-2.41 2.83-6.68 6.89-9.5 9.03-2.81 2.14-6.92 4.71-9.12 5.7-2.2 0.99-7.15 2.55-11 3.46-4.84 1.15-9.31 1.49-14.5 1.12-4.12-0.3-10.2-1.55-13.5-2.79-3.3-1.23-7.8-3.91-10-5.94-2.2-2.03-5.22-5.89-6.7-8.57-1.49-2.68-3.68-8.47-4.87-12.87-1.77-6.57-2.15-10.68-2.13-23 0.03-10.76 1.05-23.48 3.61-45 1.97-16.5 3.58-32.03 3.59-34.5 0.01-2.47-0.66-5.51-1.49-6.75-0.83-1.24-2.52-2.25-3.76-2.26-1.24 0-3.26 0.67-4.5 1.5-1.24 0.83-3.33 3.42-4.65 5.76-1.31 2.34-3.45 7.3-4.75 11.03-1.29 3.73-2.91 6.77-3.6 6.75-0.69-0.02-4.51-1-8.5-2.19-3.99-1.18-7.36-2.53-7.5-3-0.14-0.46-0.7-0.62-1.25-0.34-0.55 0.28-1 0.05-1-0.5 0-0.55 0.56-1.16 1.25-1.35 0.69-0.19 1.57-1.88 1.97-3.75 0.39-1.87 2.75-7.45 5.25-12.4 2.49-4.95 6.7-11.7 9.35-15 2.66-3.3 7.45-7.8 10.67-10 3.21-2.2 8.12-4.77 10.92-5.72 2.81-0.94 8.23-1.73 12.09-1.76zm318.5-47.02h47l0.01 82.75c0 80.94 0.04 82.82 2 86 1.09 1.79 3.34 3.93 4.99 4.75 1.65 0.82 5.48 1.5 14 1.5v40l-14.25 0.01c-7.84 0.01-16.72-0.45-19.75-1.01-3.02-0.57-7.75-2.12-10.5-3.45-2.75-1.33-7.02-4.17-9.5-6.33-2.47-2.15-5.93-6.57-7.69-9.81-1.75-3.25-3.88-8.84-4.73-12.41-1.34-5.6-1.55-18.63-1.56-94.25zm206 0h46v215h-39l-1.05-7.25c-0.57-3.99-1.25-8.26-1.5-9.5-0.25-1.24-1.02-2.25-1.7-2.24-0.69 0-2.38 1.64-3.75 3.65-1.38 2-4.53 5.42-7 7.59-2.48 2.18-6.75 5.1-9.5 6.5-2.75 1.4-7.48 3.14-10.5 3.86-3.03 0.73-9.67 1.33-14.75 1.35-5.09 0.02-11.62-0.44-14.5-1.03-2.89-0.59-7.95-1.92-11.25-2.97-3.3-1.04-9.38-4.1-13.5-6.81-4.13-2.7-9.75-7.13-12.5-9.82-2.75-2.7-7.11-8.04-9.69-11.87-2.58-3.83-5.24-8.53-5.9-10.46-0.66-1.93-1.54-3.95-1.95-4.5-0.42-0.55-1.67-4.15-2.78-8-1.12-3.85-2.52-10.26-3.11-14.25-0.59-3.99-1.07-11.53-1.07-16.75 0-5.22 0.49-12.76 1.09-16.75 0.61-3.99 1.69-9.5 2.4-12.25 0.72-2.75 2.29-7.47 3.5-10.5 1.21-3.03 3.36-7.53 4.78-10 1.43-2.47 3.97-6.3 5.65-8.5 1.68-2.2 3.51-4.56 4.07-5.25 0.55-0.69 3.93-3.68 7.51-6.65 3.57-2.96 9.2-6.77 12.5-8.45 3.3-1.68 9.6-3.97 14-5.09 4.4-1.12 11.15-2.03 15-2.04 3.85 0 9.92 0.47 13.5 1.05 3.57 0.58 10.1 2.63 14.5 4.55 4.4 1.92 10.47 5.53 13.5 8.02 4.86 4.01 5.57 4.32 6.18 2.7 0.37-1.01 0.71-15.68 0.75-32.59zm-51.9 89.57c-2.97 1.61-6.92 4.73-8.79 6.93-1.87 2.2-4.36 6.03-5.54 8.5-1.17 2.48-2.72 6.75-3.43 9.5-0.72 2.75-1.58 8.15-1.92 12-0.35 3.85-0.13 10.49 0.47 14.75 0.61 4.26 2.03 10.34 3.15 13.5 1.12 3.16 3.49 7.73 5.25 10.15 1.76 2.42 5.46 5.94 8.21 7.81 2.75 1.87 6.8 3.87 9 4.45 2.2 0.57 7.15 1.04 11 1.04 4.84 0 8.54-0.65 12-2.1 2.75-1.15 7.1-4.23 9.68-6.85 2.58-2.61 5.8-7 7.17-9.75 1.36-2.75 3.19-8.49 4.06-12.75 0.87-4.26 1.59-10.9 1.59-14.75 0-3.85-0.72-10.49-1.6-14.75-0.87-4.26-2.68-10-4.02-12.75-1.33-2.75-4.33-6.98-6.65-9.41-2.33-2.42-6.48-5.41-9.23-6.64-2.75-1.23-7.03-2.42-9.5-2.64-2.48-0.22-6.98-0.12-10 0.22-3.19 0.36-7.77 1.85-10.9 3.54zm187.9-42.49c4.67-0.06 12.1 0.62 16.5 1.51 4.4 0.89 11.37 2.99 15.5 4.67 4.12 1.68 9.93 4.67 12.91 6.65 2.99 1.97 7.2 5.62 9.37 8.09 2.16 2.48 5.23 6.75 6.8 9.5 1.58 2.75 3.56 8.04 4.39 11.75 0.84 3.71 1.53 7.65 1.53 8.75 0 1.94-0.67 2-44 2l-0.5-3.25c-0.27-1.79-1.95-5-3.75-7.15-1.79-2.14-5.5-5.02-8.25-6.41-3.97-2-6.55-2.53-12.5-2.57-6.16-0.04-8.54 0.43-13.25 2.66-3.9 1.84-6.24 3.69-7.25 5.72-0.83 1.65-1.5 4.13-1.5 5.5 0 1.38 0.78 3.88 1.75 5.57 1.13 1.99 3.85 4.07 7.75 5.95 3.3 1.58 14.1 4.96 24 7.49 9.9 2.53 21.6 5.69 26 7.02 4.4 1.32 10.87 4.11 14.38 6.19 3.51 2.08 7.85 5.58 9.65 7.78 1.79 2.2 4.21 5.8 5.36 8 1.15 2.2 3.03 7.83 4.16 12.5 1.17 4.79 1.87 10.25 1.61 12.5-0.26 2.2-1.18 7.04-2.06 10.75-0.88 3.71-2.68 8.89-4 11.5-1.32 2.61-4.35 6.97-6.75 9.68-2.39 2.72-7.05 6.67-10.35 8.79-3.3 2.12-8.48 4.77-11.5 5.89-3.03 1.12-8.88 2.68-13 3.46-4.24 0.81-13.38 1.42-21 1.41-9.64-0.02-16.08-0.59-22.5-1.99-5-1.09-12.68-3.75-17.25-5.98-4.89-2.37-10.6-6.19-14-9.35-3.48-3.23-7.22-8.08-9.47-12.25-2.04-3.8-4.4-10.06-5.23-13.91-0.84-3.85-1.53-8.46-1.55-13.5l41.28 0.5 1.17 4c0.64 2.2 2.04 5.49 3.11 7.3 1.06 1.82 4.19 4.87 6.94 6.78 3.43 2.38 7.03 3.84 11.5 4.65 5.08 0.92 7.91 0.91 13-0.07 3.76-0.73 8.18-2.41 10.5-4 2.69-1.84 4.49-4.1 5.5-6.9 1.36-3.79 1.34-4.46-0.25-7.71-0.97-1.96-3.21-4.28-5-5.18-1.79-0.9-5.95-2.46-9.25-3.46-3.3-1.01-10.73-2.95-16.5-4.31-5.78-1.37-14.33-3.68-19-5.15-4.68-1.46-12.1-4.37-16.5-6.45-4.4-2.08-10.25-5.8-13-8.25-2.75-2.46-6.2-6.67-7.67-9.36-1.46-2.69-3.22-7.81-3.9-11.39-0.75-3.93-1.02-9.86-0.67-15 0.32-4.67 1.33-10.75 2.25-13.5 0.92-2.75 3.54-7.87 5.83-11.39 2.58-3.97 6.43-8.07 10.16-10.86 3.3-2.46 7.57-5.28 9.5-6.27 1.92-0.99 5.97-2.72 9-3.86 3.02-1.14 9.1-2.71 13.5-3.5 4.4-0.79 11.82-1.49 16.5-1.54zm-399.09 3.88c16.42-0.04 21.88 0.26 22.81 1.25 0.94 1 1.17 19.49 0.78 162.29l-46.5 0.5-0.17-81.33c-0.09-44.74 0.21-81.64 0.67-82 0.45-0.37 10.54-0.69 22.41-0.71z"/>
</svg>