<svg version="1.2" xmlns="http://www.w3.org/2000/svg" viewBox="0 0 815 236" width="815" height="236">
	<style>
		.s0 { fill: #ffffff } 
	</style>
	<path id="Path 0" fill-rule="evenodd" class="s0" d="m486.23 37.02c6.08 0.11 6.4 0.2 10.42 2.91 2.87 1.93 4.65 3.75 5.77 5.93 1.2 2.31 1.62 4.27 1.61 7.49-0.01 2.4-0.35 5.23-0.75 6.28-0.41 1.06-1.9 3.12-3.32 4.59-1.41 1.48-3.83 3.32-5.36 4.11-1.54 0.79-4.68 1.59-6.98 1.77-2.3 0.18-5.44-0.01-6.97-0.42-1.54-0.42-4.2-1.69-5.93-2.84-1.73-1.15-3.92-3.26-4.88-4.69-1.31-1.94-1.81-3.75-2.01-7.18-0.15-2.52 0.07-5.68 0.49-7.02 0.41-1.34 1.94-3.71 3.4-5.25 1.46-1.55 3.91-3.48 5.44-4.3 2.32-1.25 3.84-1.48 9.07-1.38zm-181.7 42.52c6.63 0.17 7.68 0.38 11.09 2.26 2.6 1.43 4.49 3.15 6.07 5.56 1.42 2.15 2.75 5.49 3.47 8.72 0.94 4.18 1.1 7.33 0.79 15.69-0.22 5.76-1.36 18.94-2.55 29.3-1.18 10.35-2.17 22.44-2.19 26.85-0.02 4.41 0.26 8.81 0.63 9.77 0.36 0.96 1.36 2.37 2.21 3.13 0.92 0.84 2.42 1.37 3.74 1.31 1.21-0.04 3.21-0.59 4.46-1.22 1.25-0.62 3.52-2.39 5.06-3.92 1.55-1.55 4.01-5.35 5.53-8.55 1.51-3.16 3.55-8.26 4.54-11.33 0.99-3.07 2.56-9.5 3.5-14.3 0.93-4.8 2.18-13.19 2.78-18.66 0.63-5.79 1.09-16.12 1.1-24.76 0-8.15 0.16-15.53 0.34-16.39 0.34-1.57 0.37-1.57 29.64-1.57l0.45 2.61c0.25 1.44 0.27 8.27 0.04 15.18-0.23 6.9-1.26 21.81-2.29 33.13-1.03 11.31-1.91 25.6-1.95 31.73-0.07 9.16 0.12 11.54 1.06 13.26 0.63 1.15 1.84 2.72 2.69 3.48 1.17 1.07 2.35 1.36 4.95 1.23 2.32-0.12 5.05-1.01 8.48-2.77 3.33-1.7 6.73-4.25 9.99-7.49 2.71-2.71 6.2-6.8 7.75-9.1 1.55-2.3 3.92-6.38 5.27-9.07 1.35-2.68 3.35-7.55 4.43-10.81 1.84-5.51 1.98-6.71 2-17.09 0.01-10.74-0.06-11.31-1.9-15.17-1.05-2.21-2.07-4.01-2.26-4.01-0.19 0-1.84 0.65-3.66 1.45-2.57 1.12-4.42 1.39-8.25 1.22-4.16-0.19-5.41-0.56-7.89-2.32-1.61-1.15-3.45-3.19-4.07-4.54-0.62-1.34-1.16-4.32-1.18-6.62-0.05-3.21 0.38-5.08 1.82-8.02 1.47-3 2.69-4.34 5.58-6.14 3.63-2.25 3.84-2.29 10.68-2.09 5.7 0.17 7.6 0.52 10.46 1.91 1.92 0.94 5.26 3.45 7.42 5.58 2.74 2.7 4.81 5.67 6.82 9.8 1.8 3.72 3.26 8.02 3.89 11.51 0.55 3.07 1.01 8.96 1.03 13.08 0.01 4.16-0.47 9.91-1.08 12.91-0.6 2.97-2.03 8.23-3.18 11.68-1.15 3.45-3.35 8.79-4.89 11.86-1.54 3.07-4.45 8.09-6.46 11.16-2 3.07-6.17 8.25-9.25 11.51-3.09 3.26-7.3 7.24-9.37 8.84-2.07 1.6-6.04 4.04-8.82 5.41-2.78 1.37-7.8 3.15-11.16 3.96-4.7 1.13-7.55 1.4-12.38 1.15q-6.28-0.31-9.42-1.71c-1.72-0.77-4.47-2.7-6.1-4.3-1.63-1.59-3.62-4.38-4.41-6.2-0.8-1.83-1.74-5.83-2.11-8.9-0.36-3.07-0.73-5.65-0.82-5.75-0.09-0.09-1.08 1.48-2.19 3.49-1.12 2.01-3.19 5.38-4.6 7.49-1.41 2.11-4.58 5.52-7.04 7.58-2.45 2.06-5.25 4.15-6.21 4.65-0.96 0.5-4.1 1.56-6.97 2.36-3.21 0.89-7.27 1.46-10.47 1.45-2.87-0.01-6.95-0.48-9.06-1.06-2.11-0.57-5.25-1.95-6.98-3.06-1.73-1.11-4.32-3.69-5.76-5.75-1.45-2.05-3.47-6.24-4.5-9.31-1.75-5.22-1.87-6.35-1.84-17.78 0.02-9.02 0.61-17.4 2.27-32.09 1.24-10.93 2.25-21.6 2.25-23.71 0-3.02-0.31-4.1-1.44-5.06-0.85-0.72-1.94-1.03-2.66-0.77-0.67 0.25-1.82 0.96-2.55 1.57-0.73 0.62-2.55 3.79-4.05 7.05-1.49 3.26-2.97 6.4-3.28 6.97-0.31 0.58-1.15 1.15-1.88 1.27-0.73 0.12-3.05-0.31-5.16-0.97-2.11-0.66-4.54-1.62-5.4-2.14-1.07-0.65-1.37-1.22-0.94-1.82 0.35-0.48 1.3-2.75 2.11-5.06 0.81-2.3 2.8-6.49 4.42-9.31 1.62-2.81 4.52-6.87 6.44-9.01 1.92-2.15 5.21-4.99 7.32-6.33 2.11-1.33 4.94-2.84 6.28-3.35 1.6-0.6 4.97-0.86 9.77-0.74zm461.75 0.11c8.78 0.17 10.82 0.43 15.52 2.03 2.97 1.01 7.37 2.83 9.76 4.03 2.74 1.37 6.2 4.04 9.29 7.15 2.76 2.77 5.66 6.5 6.58 8.45 0.91 1.92 2.06 5.06 2.56 6.97 0.5 1.92 0.92 4.51 0.93 8.02h-15.69c-15.23 0-15.7-0.04-15.7-1.39 0-0.77-0.47-2.34-1.04-3.49-0.58-1.15-2.54-3.2-4.36-4.56-1.83-1.35-4.42-2.81-5.76-3.23-1.34-0.42-4.64-0.62-7.32-0.45-3.78 0.25-5.65 0.78-8.3 2.37-1.87 1.12-3.72 2.66-4.1 3.43-0.38 0.77-0.66 2.49-0.63 3.84 0.04 1.7 0.65 3.03 2.01 4.37 1.07 1.06 3.83 2.71 6.14 3.65 2.3 0.95 11.24 3.64 19.87 5.97 8.64 2.34 17.72 5.24 20.19 6.46 2.47 1.22 5.92 3.51 7.67 5.08 1.75 1.58 4.03 4.4 5.07 6.28 1.04 1.88 2.53 5.92 3.32 8.99 0.79 3.07 1.43 6.76 1.43 8.2-0.01 1.44-0.51 4.89-1.13 7.67-0.62 2.78-2 6.94-3.07 9.24-1.17 2.52-3.58 5.82-6.03 8.28-2.24 2.24-5.96 5.13-8.26 6.41-2.31 1.27-6.7 3.04-9.77 3.93-5 1.44-7.03 1.61-19.53 1.61-11.32 0-14.8-0.24-18.48-1.26-2.5-0.69-7.05-2.48-10.12-3.98-3.07-1.5-7.17-4.22-9.13-6.06-1.95-1.84-4.55-4.92-5.77-6.84-1.23-1.91-3.01-5.92-3.95-8.89-0.95-2.97-1.72-6.97-1.72-12.38l28.94-0.04 1.02 3.33c0.59 1.94 2.19 4.61 3.83 6.38 1.56 1.68 3.92 3.61 5.27 4.29 1.34 0.68 4.16 1.56 6.27 1.96 2.51 0.46 5.05 0.48 7.33 0.04 1.92-0.37 4.82-1.28 6.45-2.04 1.66-0.76 3.58-2.36 4.36-3.63 0.76-1.25 1.39-3.21 1.4-4.36 0-1.15-0.47-2.8-1.05-3.66-0.57-0.87-2.54-2.22-4.36-3.02-1.82-0.8-8.18-2.7-14.13-4.23-5.94-1.52-13.32-3.58-16.39-4.57-3.07-0.99-7.77-2.83-10.46-4.09-2.69-1.26-6.21-3.34-7.84-4.61-1.62-1.28-4.05-3.9-5.4-5.81-1.35-1.92-2.96-5.37-3.58-7.68-0.85-3.13-1.05-6.2-0.82-12.2 0.28-7.23 0.53-8.51 2.57-12.91 1.25-2.68 3.42-6.27 4.83-7.97 1.41-1.7 4.29-4.35 6.4-5.89 2.11-1.54 5.72-3.65 8.03-4.69 2.3-1.04 6.06-2.37 8.37-2.96 2.3-0.58 5.12-1.22 6.27-1.4 1.15-0.18 6.65-0.25 12.21-0.14zm-240.64-33.1h32.78v45.17c0 24.84 0.22 51.13 0.49 58.41 0.46 12.93 0.52 13.31 2.26 15.22 1.43 1.57 2.79 2.12 11.91 3.62l-0.01 27.55-11.34 0.01c-9.71 0.01-11.98-0.21-15.86-1.48-2.5-0.82-5.64-2.2-6.98-3.05-1.34-0.86-3.78-3.02-5.41-4.8-1.63-1.78-3.4-4.1-3.93-5.15-0.54-1.06-1.64-3.96-2.45-6.46-1.46-4.48-1.48-5.25-1.47-66.78zm143.89 0h31.88v149.96l-27.55 0.02-0.58-4.37c-0.31-2.4-0.78-5.24-1.04-6.3-0.26-1.07-0.79-1.94-1.17-1.95-0.38 0-1.64 1.3-2.79 2.89-1.15 1.6-3.98 4.3-6.28 6-2.3 1.71-5.91 3.78-8.02 4.61-3.35 1.31-5.24 1.51-15 1.52-9.96 0.02-11.68-0.15-16.04-1.64-2.68-0.92-6.29-2.46-8.02-3.44-1.73-0.97-5.18-3.38-7.67-5.35-2.5-1.97-5.68-4.98-7.07-6.68-1.39-1.7-3.62-4.82-4.95-6.93-1.33-2.11-3.29-6.03-4.35-8.72-1.06-2.69-2.51-7.55-3.23-10.81-0.92-4.22-1.3-8.81-1.31-15.87-0.01-7.13 0.37-11.86 1.35-16.74 0.75-3.74 2.24-9 3.33-11.68 1.08-2.69 3.52-7.23 5.43-10.1 1.91-2.87 4.73-6.43 6.26-7.91 1.54-1.49 4.52-3.88 6.63-5.33 2.11-1.44 5.25-3.33 6.97-4.2 1.73-0.87 5.5-2.18 8.37-2.9 3.35-0.84 7.63-1.31 11.86-1.3 3.65 0.01 8.59 0.49 10.99 1.06 2.4 0.57 6.01 1.77 8.02 2.68 2.01 0.91 5.62 3.1 8.02 4.88 2.4 1.78 4.52 3.24 4.71 3.24 0.19 0 0.35-6.52 0.35-14.48 0-7.96 0.21-18 0.45-22.32zm-37.17 63.24c-1.34 0.82-3.46 2.61-4.71 4-1.24 1.38-3.05 4.08-4.01 6-0.96 1.92-2.21 5.45-2.78 7.85-0.57 2.4-1.03 7.18-1.03 10.64 0 3.45 0.48 8.47 1.06 11.16 0.58 2.68 2.06 6.73 3.3 9 1.23 2.26 3.5 5.18 5.03 6.48 1.54 1.3 4.2 3.06 5.93 3.9 2.57 1.26 4.29 1.53 9.42 1.49 5.17-0.04 6.88-0.35 9.71-1.74 1.9-0.94 4.96-3.41 6.85-5.53 2-2.24 4-5.43 4.82-7.67 0.76-2.11 1.7-5.41 2.07-7.33 0.38-1.92 0.68-6.47 0.67-10.11-0.01-3.7-0.5-8.48-1.1-10.81-0.6-2.31-1.85-5.76-2.77-7.68-0.93-1.91-2.88-4.69-4.34-6.17-1.46-1.48-4.23-3.49-6.15-4.47-2.51-1.28-4.85-1.85-8.37-2.01-2.68-0.13-6.29 0.16-8.02 0.64-1.73 0.49-4.24 1.55-5.58 2.36zm-162.31-27.66h15.59c14.89 0 15.62 0.06 16.29 1.39 0.44 0.9 0.69 21.39 0.69 113l-32.43 0.01-0.53-9.6c-0.28-5.28-0.52-26.54-0.52-47.26 0.01-20.71 0.21-42.14 0.46-47.6z"/>
	<path id="Path 1" class="s0" d="m112.92 0.57c-0.62 0.3-3.04 2.34-5.37 4.53-2.34 2.2-6.09 6-8.34 8.46-2.24 2.45-5.27 5.9-6.72 7.65-1.44 1.76-3.66 4.55-4.92 6.22-1.25 1.67-3.2 4.39-4.32 6.06-1.12 1.67-3.24 5.04-4.71 7.5-1.47 2.45-3.65 6.47-4.84 8.93-1.2 2.46-2.96 6.55-3.93 9.09-0.97 2.54-2.28 6.28-2.91 8.29-0.63 2.02-1.56 5.68-2.08 8.14-0.52 2.45-1.11 6.04-1.31 7.97-0.2 1.93-0.31 3.93-0.25 4.44 0.09 0.76 0.66-0.19 3.28-5.42 2.22-4.45 4.38-8.17 7.23-12.41 2.24-3.34 5.41-7.79 7.04-9.89 1.68-2.18 5.72-6.6 9.35-10.24 3.51-3.52 7.67-7.48 9.25-8.79 1.58-1.32 4.31-3.48 6.06-4.8 1.76-1.32 4.7-3.41 6.54-4.64 1.84-1.22 5.47-3.47 8.06-4.98 2.58-1.52 5.96-3.39 7.49-4.15 1.54-0.77 3.28-1.81 3.88-2.31 0.6-0.51 1.28-1.39 1.52-1.96 0.23-0.57 0.42-1.61 0.42-2.31 0-0.7-0.27-1.82-0.59-2.47-0.33-0.66-3.05-3.56-6.07-6.46-3.37-3.25-6.1-5.61-7.14-6.15-1.31-0.7-2.07-0.89-3.58-0.87-1.11 0.01-2.39 0.25-3.04 0.57zm-68.51 24.41c-0.58 0.21-1.58 0.82-2.23 1.36-0.65 0.53-1.45 1.54-1.78 2.23-0.33 0.69-0.8 2.33-1.05 3.65-0.25 1.31-0.75 4.83-1.11 7.81-0.47 3.96-0.7 8.23-0.82 15.79-0.11 6.59-0.03 12.34 0.21 15.79 0.21 2.98 0.59 7.07 0.85 9.09 0.27 2.02 0.84 5.54 1.28 7.82 0.44 2.28 1.16 5.58 1.6 7.33 0.43 1.76 1.23 4.63 1.76 6.38 0.54 1.76 1.62 4.84 2.42 6.86 0.79 2.02 2.05 4.89 2.79 6.38 0.75 1.49 2.12 4 3.05 5.58 0.93 1.58 1.74 2.73 1.81 2.55 0.06-0.17-0.18-2.04-0.53-4.14-0.35-2.11-0.88-5.98-1.19-8.61-0.37-3.25-0.55-7.25-0.55-12.45-0.01-4.21 0.17-9.52 0.39-11.8 0.22-2.28 0.76-6.66 1.2-9.73 0.44-3.07 1.3-7.88 1.91-10.68 0.61-2.81 1.55-6.69 2.09-8.62 0.55-1.92 1.64-5.3 2.43-7.49 0.79-2.19 2.27-6 3.28-8.45 1.02-2.46 2.39-5.62 3.05-7.02 0.95-2.03 1.2-2.95 1.22-4.49 0.02-1.57-0.13-2.16-0.77-3.11-0.44-0.65-1.37-1.47-2.08-1.81-1.17-0.58-1.93-0.63-9.72-0.61-5.62 0.01-8.81 0.14-9.51 0.39zm134.71-0.06c-1.41 0.15-4.35 0.5-6.54 0.78-2.2 0.28-6.86 1.07-10.37 1.76-3.51 0.69-8.53 1.84-11.16 2.56-2.64 0.72-6.44 1.88-8.46 2.59-2.01 0.71-5.89 2.22-8.61 3.35-2.72 1.13-6.88 3.04-9.25 4.25-2.37 1.2-5.88 3.14-7.81 4.3-1.93 1.16-5.09 3.24-7.02 4.63-1.93 1.38-5.16 3.93-7.18 5.67-2.02 1.73-5.14 4.68-6.94 6.54-1.8 1.87-3.27 3.55-3.27 3.72 0 0.18 1.19-0.33 2.63-1.13 1.45-0.8 4.07-2.11 5.83-2.91 1.75-0.81 4.84-2.11 6.85-2.89 2.02-0.78 5.54-2.06 7.82-2.84 2.28-0.79 6.16-1.93 8.61-2.53 2.46-0.61 5.97-1.39 7.82-1.73 1.84-0.35 5.28-0.91 7.65-1.26 2.37-0.35 6.61-0.8 9.41-1 3.1-0.23 7.98-0.31 12.44-0.19 4.04 0.1 9.78 0.47 12.76 0.82 2.98 0.35 7.22 0.94 9.41 1.31 3.27 0.55 4.29 0.61 5.66 0.33 1.03-0.2 2.06-0.67 2.66-1.21 0.54-0.48 1.21-1.52 1.5-2.31 0.46-1.29 0.48-1.96 0.12-6.38-0.22-2.72-0.54-6.24-0.71-7.82-0.18-1.58-0.53-3.44-0.78-4.14-0.25-0.71-0.92-1.77-1.5-2.37-0.58-0.59-1.62-1.34-2.32-1.66-0.95-0.43-1.98-0.58-3.99-0.55-1.49 0.02-3.86 0.16-5.26 0.31zm-36.26 36.74c-1.7 0.21-3.2 0.49-3.35 0.62-0.15 0.13-0.05 0.29 0.21 0.37 0.27 0.08 1.27 0.31 2.24 0.53 0.96 0.21 3.9 1.1 6.53 1.97 2.64 0.87 7.44 2.62 10.69 3.9 3.25 1.27 7.19 2.95 8.77 3.75 1.58 0.79 5.31 2.83 8.3 4.55 2.98 1.71 7.43 4.44 9.88 6.07 2.46 1.62 6.41 4.5 8.78 6.4 2.37 1.89 7.03 6.17 10.37 9.52 3.33 3.35 6.95 7.23 8.04 8.63 1.08 1.41 2.52 2.87 3.18 3.25 0.67 0.38 1.72 0.78 2.33 0.9q1.12 0.22 2.39-0.31c0.7-0.29 1.55-0.77 1.87-1.06 0.33-0.3 2.26-3.84 4.3-7.88 3.66-7.27 3.7-7.36 3.7-9.57 0-1.64-0.17-2.57-0.66-3.51-0.37-0.7-1.25-1.78-1.96-2.39-0.71-0.61-3.86-2.72-6.98-4.67-3.13-1.95-7.7-4.67-10.16-6.05-2.45-1.37-6.54-3.45-9.09-4.62-2.54-1.17-6.56-2.85-8.93-3.73-2.37-0.88-6.39-2.17-8.93-2.87-2.54-0.7-6.71-1.64-9.25-2.1-2.54-0.46-6.49-1.06-8.77-1.33-2.3-0.28-7.77-0.56-12.28-0.63-5.2-0.08-9.25 0.01-11.22 0.26zm-125.63 14.54c-0.44 0.14-1.15 0.44-1.59 0.68-0.44 0.23-3.46 2.59-6.7 5.25-3.25 2.66-6.21 5.25-6.58 5.77-0.37 0.51-0.85 1.51-1.08 2.21-0.23 0.72-0.34 2.04-0.25 3.03 0.12 1.39 0.65 2.71 2.55 6.38 1.33 2.55 3.24 6.06 4.25 7.82 1.01 1.75 2.91 4.84 4.23 6.85 1.31 2.02 3.61 5.32 5.11 7.34 1.5 2.02 4.09 5.32 5.75 7.34 1.67 2.02 5.2 5.83 7.84 8.47 2.65 2.64 6.11 5.88 7.69 7.2 1.57 1.33 4.4 3.54 6.27 4.93 1.88 1.39 4.89 3.45 6.7 4.58 1.81 1.13 5.16 3 7.44 4.17 2.28 1.16 5.51 2.64 7.18 3.29 1.66 0.66 3.06 1.11 3.11 1.02 0.04-0.09-0.46-0.63-1.12-1.19-0.66-0.56-3.26-3.04-5.77-5.5-2.6-2.54-6.42-6.77-8.81-9.75-2.33-2.89-6.03-7.99-8.23-11.32-2.19-3.33-4.82-7.57-5.84-9.41-1.02-1.84-2.68-5.07-3.68-7.18-1.01-2.1-2.64-5.87-3.61-8.37-0.98-2.5-2.57-7.17-3.55-10.37-0.97-3.2-2.32-8.12-2.99-10.92-0.68-2.81-1.46-6.08-1.74-7.26-0.29-1.18-0.8-2.55-1.15-3.03-0.35-0.48-1.03-1.12-1.52-1.41-0.48-0.29-1.38-0.6-1.99-0.7-0.62-0.09-1.48-0.06-1.92 0.08zm152.21 10.69c-0.03 0.11 1.11 1.66 2.52 3.46 1.42 1.8 4.2 5.71 6.19 8.69 1.99 2.99 4.66 7.29 5.94 9.57 1.27 2.28 3.16 5.94 4.2 8.14 1.04 2.19 2.54 5.49 3.32 7.33 0.79 1.85 2.2 5.51 3.13 8.14 0.94 2.63 2.42 7.65 3.3 11.16 0.88 3.51 1.97 8.61 2.43 11.33 0.45 2.71 1.11 7.45 1.46 10.52 0.35 3.07 0.64 6.59 0.64 7.82 0 1.45 0.21 2.67 0.58 3.51 0.32 0.7 1.03 1.67 1.59 2.15 0.56 0.48 1.55 0.97 2.21 1.08 0.84 0.14 1.62 0.01 2.63-0.43 0.79-0.35 4.16-2.7 7.48-5.22 5.66-4.3 6.1-4.72 6.82-6.36 0.64-1.42 0.75-2.11 0.63-3.66-0.1-1.17-0.87-3.96-1.99-7.18-1-2.9-2.71-7.49-3.79-10.21-1.07-2.72-3.15-7.38-4.62-10.37-1.47-2.98-3.47-6.78-4.45-8.45-0.97-1.67-3.22-5.18-4.99-7.81-1.77-2.64-4.07-5.87-5.11-7.18-1.04-1.32-3.55-4.25-5.58-6.51-2.04-2.26-4.99-5.29-6.57-6.72-1.58-1.44-3.95-3.47-5.26-4.5-1.32-1.04-4.05-2.98-6.06-4.31-2.02-1.34-4.33-2.82-5.14-3.3-0.8-0.49-1.48-0.79-1.51-0.69zm9.41 47.08c-0.1 5.28-0.39 10.1-0.82 13.72-0.37 3.07-1.03 7.73-1.48 10.36-0.46 2.64-1.3 6.87-1.89 9.41-0.58 2.55-1.5 6.14-2.03 7.98-0.54 1.84-1.54 4.93-2.23 6.86-0.7 1.93-2.1 5.59-3.11 8.13-1.02 2.55-3.04 7-4.48 9.89-1.45 2.9-3.66 6.99-4.93 9.09-1.27 2.11-2.44 4.33-2.6 4.95-0.17 0.61-0.22 1.58-0.12 2.15 0.11 0.57 0.66 1.56 1.23 2.2 0.57 0.64 1.5 1.36 2.07 1.6 0.57 0.23 3.95 0.71 7.5 1.06 3.55 0.35 7.1 0.64 7.89 0.65 0.95 0 2.04-0.3 3.19-0.88 1.22-0.61 2.06-1.33 2.72-2.32 0.57-0.85 1.52-3.25 2.32-5.9 0.74-2.46 1.7-6.04 2.13-7.97 0.44-1.93 1-4.81 1.27-6.38 0.27-1.58 0.69-4.53 0.95-6.54 0.26-2.02 0.64-5.9 0.85-8.62 0.24-3.16 0.31-8.44 0.19-14.67-0.11-5.73-0.39-11.37-0.68-13.72-0.28-2.19-0.79-5.63-1.15-7.65-0.36-2.02-0.94-4.82-1.29-6.22-0.35-1.4-1.08-3.92-1.61-5.58-0.53-1.67-1.47-4.4-2.09-6.06-0.62-1.67-1.24-3.18-1.38-3.35-0.15-0.18-0.33 3.34-0.42 7.81zm-166.38 9.63c-0.71 0.14-1.62 0.46-2.02 0.71-0.39 0.25-0.97 0.93-1.28 1.52-0.31 0.58-1.37 4-2.36 7.6-0.98 3.6-1.93 7.26-2.11 8.13-0.24 1.15-0.22 2 0.05 3.03 0.2 0.79 0.91 2.07 1.56 2.83 1.01 1.17 2.3 1.94 8.21 4.84 3.86 1.9 9.39 4.38 12.28 5.52 2.9 1.13 7.35 2.73 9.89 3.55 2.54 0.81 6.28 1.89 8.29 2.39 2.02 0.51 5.18 1.21 7.02 1.56 1.84 0.36 4.36 0.8 5.58 0.98 1.23 0.19 3.67 0.48 5.43 0.64 1.75 0.17 5.27 0.4 7.81 0.52 2.71 0.13 6.88 0.06 10.05-0.16 2.98-0.21 6.57-0.58 7.97-0.82 1.41-0.25 4.21-0.87 6.22-1.39 2.02-0.52 5.32-1.49 7.34-2.15l3.67-1.2c-2.47-0.36-4.98-0.63-7.18-0.82-2.19-0.19-6.35-0.71-9.25-1.16-2.89-0.44-7.49-1.3-10.21-1.9-2.71-0.6-6.95-1.68-9.41-2.39-2.45-0.72-6.4-2.03-8.77-2.91-2.37-0.88-7.03-2.93-10.36-4.54-3.34-1.62-7.5-3.78-9.25-4.8-1.76-1.03-4.77-2.94-6.7-4.26-1.93-1.31-5.31-3.78-7.5-5.49-2.19-1.7-5.6-4.55-7.58-6.33-2.01-1.82-3.97-3.32-4.46-3.43-0.48-0.1-1.05-0.21-1.26-0.25-0.2-0.04-0.96 0.04-1.67 0.18zm149.27 20.89c-1.29 1.9-3.42 4.89-4.74 6.64-1.31 1.76-3.33 4.34-4.48 5.75-1.15 1.4-3.74 4.4-5.77 6.66-2.02 2.27-5.4 5.77-7.51 7.79-2.1 2.02-5.55 5.11-7.65 6.87-2.11 1.76-5.7 4.59-7.98 6.29-2.28 1.7-6.01 4.31-8.29 5.8-2.28 1.49-6.44 4.01-9.25 5.6-2.81 1.58-5.68 3.29-6.38 3.79-0.7 0.5-1.53 1.41-1.85 2.02-0.42 0.8-0.54 1.55-0.43 2.7 0.09 0.88 0.43 1.96 0.77 2.4 0.33 0.43 2.68 2.48 5.21 4.55 3.29 2.68 5.05 3.89 6.19 4.27 0.99 0.32 2.14 0.45 3.03 0.34 0.79-0.09 2.08-0.49 2.87-0.89 0.8-0.4 3.4-2.63 5.89-5.05 2.45-2.39 6.16-6.13 8.26-8.33 2.09-2.19 5.4-5.9 7.35-8.24 1.95-2.33 4.83-6.02 6.41-8.2 1.58-2.17 4.04-5.78 5.46-8.03 1.43-2.24 3.69-6.09 5.02-8.54 1.33-2.46 3.08-5.94 3.87-7.74 0.79-1.8 2.1-5.17 2.9-7.49 0.8-2.33 1.93-6.01 2.5-8.19 0.58-2.18 1.02-4.02 0.99-4.1-0.03-0.07-1.11 1.43-2.39 3.33zm-27.44 16.74c-0.61 0.38-3.77 2.02-7.02 3.65-3.24 1.63-8.91 4.24-12.6 5.81-3.68 1.57-8.56 3.44-10.84 4.16-2.28 0.71-5.87 1.72-7.98 2.25-2.1 0.53-5.76 1.31-8.13 1.75-2.37 0.44-6.39 1.01-8.93 1.28-2.55 0.26-6.28 0.58-8.3 0.69-2.04 0.12-6.64 0.03-10.36-0.2l-6.7-0.4c-2.43 1.19-3.43 1.97-3.78 2.49-0.36 0.53-0.71 1.53-0.78 2.24-0.08 0.88 0.43 3.21 1.69 7.65 1 3.51 2 6.74 2.23 7.18 0.22 0.44 0.82 1.21 1.32 1.72 0.5 0.51 1.49 1.18 2.19 1.51 0.7 0.32 1.92 0.58 2.71 0.59 0.79 0 3.8-0.43 6.7-0.96 2.89-0.53 6.48-1.26 7.97-1.63 1.49-0.36 4.44-1.23 6.54-1.93 2.11-0.7 5.77-2.06 8.14-3.02 2.36-0.96 6.46-2.86 9.09-4.21 2.63-1.36 6.27-3.4 8.08-4.53 1.81-1.13 5.19-3.47 7.5-5.2 2.3-1.73 5.77-4.47 7.7-6.09 1.93-1.63 6.14-5.67 9.35-8.98 3.21-3.32 5.83-6.14 5.82-6.27-0.01-0.13-0.12-0.24-0.25-0.24-0.14 0.01-0.75 0.31-1.36 0.69z"/>
</svg>