<svg version="1.2" xmlns="http://www.w3.org/2000/svg" viewBox="0 0 722 740" width="722" height="740">
	<style>
		.s0 { fill: #ffffff } 
	</style>
	<path id="Path 1" class="s0" d="m350.97 1.79c-1.94 0.94-9.52 7.33-16.84 14.21-7.32 6.87-19.08 18.8-26.12 26.5-7.05 7.7-16.53 18.5-21.07 24-4.54 5.5-11.48 14.27-15.42 19.5-3.94 5.22-10.04 13.77-13.55 19-3.51 5.22-10.15 15.8-14.77 23.5-4.61 7.7-11.45 20.3-15.19 28-3.74 7.7-9.28 20.52-12.32 28.5-3.03 7.97-7.13 19.67-9.1 26-1.97 6.32-4.91 17.8-6.53 25.5-1.62 7.7-3.47 18.95-4.1 25-0.63 6.05-0.99 12.31-0.8 13.91 0.28 2.39 2.09-0.6 10.28-17 6.97-13.95 13.76-25.6 22.69-38.91 7.01-10.45 16.93-24.4 22.05-31 5.27-6.81 17.94-20.68 29.31-32.08 11-11.04 24.06-23.46 29.01-27.58 4.95-4.13 13.5-10.9 19-15.04 5.5-4.15 14.72-10.69 20.5-14.53 5.77-3.84 17.14-10.88 25.25-15.63 8.11-4.75 18.69-10.61 23.5-13.01 4.81-2.41 10.29-5.67 12.17-7.25 1.88-1.58 4.01-4.34 4.75-6.13 0.73-1.79 1.33-5.05 1.33-7.25 0-2.2-0.84-5.69-1.87-7.75-1.03-2.07-9.56-11.16-19.01-20.25-10.58-10.18-19.15-17.56-22.38-19.28-4.13-2.19-6.51-2.77-11.24-2.71-3.48 0.04-7.48 0.79-9.53 1.78zm-214.77 76.54c-1.81 0.64-4.96 2.55-7 4.23-2.03 1.69-4.55 4.84-5.58 7-1.03 2.17-2.51 7.31-3.29 11.44-0.78 4.12-2.34 15.15-3.47 24.5-1.49 12.4-2.19 25.8-2.58 49.5-0.34 20.66-0.1 38.69 0.66 49.5 0.65 9.35 1.86 22.17 2.68 28.5 0.83 6.32 2.63 17.35 4 24.5 1.38 7.15 3.63 17.5 5 23 1.37 5.5 3.87 14.5 5.54 20 1.68 5.5 5.08 15.17 7.57 21.5 2.48 6.32 6.43 15.32 8.77 20 2.34 4.67 6.64 12.55 9.55 17.5 2.92 4.95 5.46 8.55 5.66 8 0.2-0.55-0.54-6.4-1.63-13-1.1-6.6-2.78-18.75-3.73-27-1.18-10.17-1.74-22.72-1.75-39-0.01-13.2 0.55-29.85 1.23-37 0.69-7.15 2.38-20.88 3.75-30.5 1.38-9.63 4.07-24.7 5.99-33.5 1.92-8.8 4.87-20.95 6.57-27 1.7-6.05 5.12-16.63 7.6-23.5 2.48-6.88 7.11-18.8 10.3-26.5 3.19-7.7 7.48-17.6 9.55-22 2.97-6.35 3.76-9.25 3.83-14.07 0.06-4.91-0.4-6.78-2.42-9.76-1.38-2.04-4.3-4.59-6.5-5.67-3.69-1.82-6.08-1.97-30.5-1.91-17.59 0.04-27.61 0.46-29.8 1.24zm422.3-0.21c-4.4 0.47-13.63 1.57-20.5 2.45-6.88 0.88-21.5 3.37-32.5 5.53-11 2.16-26.75 5.77-35 8.02-8.25 2.25-20.18 5.9-26.5 8.13-6.33 2.22-18.48 6.94-27 10.48-8.53 3.55-21.58 9.54-29 13.32-7.43 3.78-18.45 9.85-24.5 13.49-6.05 3.64-15.95 10.17-22 14.51-6.05 4.35-16.18 12.34-22.5 17.77-6.33 5.43-16.11 14.67-21.75 20.53-5.64 5.86-10.25 11.1-10.25 11.65 0 0.55 3.71-1.05 8.25-3.55 4.54-2.49 12.75-6.6 18.25-9.13 5.5-2.52 15.17-6.59 21.5-9.04 6.32-2.45 17.35-6.46 24.5-8.92 7.15-2.47 19.3-6.03 27-7.93 7.7-1.9 18.72-4.34 24.5-5.42 5.77-1.09 16.57-2.86 24-3.94 7.42-1.09 20.7-2.51 29.5-3.15 9.72-0.72 25.02-0.95 39-0.6 12.65 0.32 30.65 1.48 40 2.57 9.35 1.1 22.62 2.95 29.5 4.11 10.23 1.73 13.45 1.93 17.75 1.06 3.2-0.65 6.45-2.13 8.32-3.81 1.69-1.51 3.8-4.78 4.7-7.25 1.46-4.02 1.5-6.15 0.38-20-0.69-8.53-1.69-19.55-2.24-24.5-0.54-4.95-1.63-10.8-2.42-13-0.79-2.2-2.91-5.53-4.71-7.4-1.8-1.87-5.08-4.22-7.28-5.23-2.96-1.35-6.21-1.8-12.5-1.72-4.68 0.06-12.1 0.5-16.5 0.97zm-113.67 115.18c-5.31 0.66-10.04 1.53-10.5 1.94-0.46 0.41-0.16 0.93 0.67 1.17 0.82 0.24 3.97 0.99 7 1.66 3.02 0.67 12.25 3.46 20.5 6.18 8.25 2.73 23.32 8.22 33.5 12.21 10.17 3.99 22.55 9.28 27.5 11.76 4.95 2.47 16.65 8.89 26 14.26 9.35 5.37 23.3 13.94 31 19.03 7.7 5.1 20.07 14.13 27.5 20.06 7.42 5.93 22.05 19.37 32.51 29.86 10.46 10.49 21.8 22.67 25.21 27.07 3.4 4.4 7.9 8.97 9.99 10.16 2.08 1.2 5.36 2.47 7.29 2.84q3.5 0.68 7.5-0.97c2.2-0.91 4.84-2.41 5.87-3.34 1.02-0.93 7.08-12.04 13.46-24.69 11.49-22.79 11.59-23.06 11.6-30 0.01-5.15-0.54-8.05-2.07-11-1.14-2.2-3.91-5.58-6.14-7.5-2.24-1.93-12.09-8.51-21.89-14.64-9.81-6.12-24.13-14.65-31.83-18.96-7.7-4.3-20.53-10.82-28.5-14.49-7.98-3.67-20.58-8.93-28-11.7-7.43-2.76-20.03-6.81-28-9-7.98-2.18-21.03-5.14-29-6.58-7.98-1.43-20.35-3.31-27.5-4.17-7.21-0.87-24.36-1.74-38.5-1.97-16.29-0.25-28.99 0.04-35.17 0.81zm-393.83 45.59c-1.38 0.44-3.63 1.39-5 2.12-1.38 0.73-10.83 8.15-21 16.47-10.18 8.33-19.45 16.47-20.61 18.08-1.16 1.62-2.69 4.74-3.39 6.94-0.72 2.25-1.07 6.4-0.8 9.5 0.38 4.36 2.04 8.5 8.01 20 4.15 7.97 10.13 19 13.3 24.5 3.18 5.5 9.14 15.17 13.26 21.5 4.12 6.32 11.33 16.67 16.03 23 4.7 6.32 12.82 16.67 18.04 23 5.23 6.32 16.29 18.27 24.58 26.55 8.3 8.28 19.13 18.45 24.08 22.59 4.95 4.15 13.81 11.1 19.69 15.45 5.87 4.35 15.32 10.81 21 14.35 5.67 3.55 16.16 9.42 23.31 13.06 7.15 3.65 17.27 8.3 22.5 10.34 5.22 2.05 9.61 3.48 9.75 3.19 0.14-0.29-1.44-1.97-3.5-3.74-2.06-1.76-10.21-9.52-18.1-17.25-8.14-7.95-20.11-21.19-27.63-30.54-7.29-9.08-18.89-25.05-25.78-35.5-6.88-10.45-15.12-23.73-18.31-29.5-3.19-5.78-8.39-15.9-11.55-22.5-3.16-6.6-8.25-18.41-11.31-26.25-3.07-7.84-8.06-22.46-11.11-32.5-3.05-10.04-7.28-25.45-9.4-34.25-2.11-8.8-4.57-19.04-5.45-22.75-0.89-3.71-2.5-7.99-3.6-9.5-1.09-1.51-3.23-3.5-4.75-4.41-1.52-0.91-4.34-1.9-6.26-2.19-1.93-0.3-4.63-0.19-6 0.24zm477.16 33.51c-0.09 0.33 3.47 5.21 7.91 10.85 4.43 5.64 13.16 17.9 19.4 27.25 6.24 9.35 14.61 22.85 18.61 30 3.99 7.15 9.93 18.62 13.19 25.5 3.26 6.87 7.94 17.22 10.41 23 2.46 5.77 6.88 17.25 9.81 25.5 2.93 8.25 7.58 24 10.33 35 2.76 11 6.18 26.97 7.61 35.5 1.42 8.52 3.48 23.37 4.58 33 1.09 9.62 2 20.65 2.01 24.5 0.02 4.57 0.65 8.39 1.83 11 0.99 2.2 3.23 5.24 4.98 6.75 1.74 1.51 4.86 3.03 6.92 3.38 2.65 0.44 5.07 0.05 8.25-1.34 2.47-1.08 13.03-8.45 23.45-16.38 17.73-13.47 19.12-14.77 21.39-19.91 1.99-4.48 2.35-6.62 1.96-11.5-0.3-3.67-2.71-12.42-6.23-22.5-3.15-9.08-8.5-23.48-11.87-32-3.38-8.53-9.9-23.15-14.51-32.5-4.6-9.35-10.87-21.28-13.93-26.5-3.06-5.23-10.11-16.25-15.66-24.5-5.55-8.25-12.76-18.38-16.02-22.5-3.25-4.13-11.13-13.3-17.5-20.4-6.37-7.09-15.63-16.58-20.58-21.09-4.95-4.5-12.38-10.85-16.5-14.1-4.13-3.25-12.68-9.33-19-13.52-6.33-4.18-13.57-8.83-16.09-10.34-2.52-1.51-4.66-2.47-4.75-2.15zm29.5 147.6c-0.32 16.54-1.22 31.65-2.57 43-1.15 9.62-3.24 24.25-4.65 32.5-1.42 8.25-4.07 21.52-5.9 29.5-1.84 7.97-4.71 19.22-6.39 25-1.67 5.77-4.82 15.45-6.99 21.5-2.17 6.05-6.56 17.52-9.75 25.5-3.2 7.97-9.52 21.92-14.04 31-4.53 9.07-11.48 21.9-15.45 28.5-3.97 6.6-7.64 13.57-8.16 15.5-0.52 1.92-0.67 4.96-0.35 6.75 0.32 1.79 2.05 4.9 3.84 6.91 1.79 2.01 4.71 4.26 6.5 5 1.79 0.74 12.36 2.24 23.5 3.34 11.14 1.1 22.27 2 24.75 2.01 2.95 0.02 6.39-0.93 10-2.74 3.8-1.92 6.43-4.16 8.52-7.27 1.79-2.67 4.75-10.2 7.27-18.5 2.33-7.7 5.34-18.95 6.69-25 1.35-6.05 3.13-15.05 3.97-20 0.83-4.95 2.17-14.18 2.98-20.5 0.81-6.33 2-18.48 2.65-27 0.75-9.93 0.97-26.46 0.6-46-0.33-17.96-1.21-35.64-2.13-43-0.86-6.88-2.48-17.68-3.6-24-1.13-6.33-2.95-15.1-4.05-19.5-1.1-4.4-3.37-12.28-5.04-17.5-1.67-5.23-4.62-13.78-6.55-19-1.94-5.23-3.89-9.95-4.34-10.5-0.45-0.55-1.04 10.47-1.31 24.5zm-521.59 30.19c-2.24 0.45-5.08 1.45-6.32 2.23-1.24 0.78-3.05 2.92-4.03 4.75-0.98 1.83-4.3 12.55-7.38 23.83-3.08 11.27-6.06 22.75-6.63 25.5-0.74 3.61-0.7 6.25 0.14 9.5 0.65 2.47 2.86 6.46 4.91 8.86 3.15 3.67 7.22 6.07 25.74 15.17 12.1 5.95 29.42 13.73 38.5 17.3 9.07 3.56 23.02 8.57 31 11.12 7.97 2.56 19.67 5.94 26 7.52 6.32 1.58 16.22 3.78 22 4.89 5.77 1.11 13.65 2.49 17.5 3.07 3.85 0.58 11.5 1.48 17 2.01 5.5 0.52 16.52 1.25 24.5 1.62 8.48 0.39 21.56 0.18 31.5-0.51 9.35-0.65 20.6-1.81 25-2.57 4.4-0.77 13.17-2.73 19.5-4.35 6.32-1.63 16.67-4.66 23-6.73l11.5-3.78c-7.75-1.13-15.63-1.96-22.5-2.56-6.88-0.61-19.93-2.24-29-3.63-9.08-1.39-23.48-4.07-32-5.96-8.53-1.88-21.8-5.26-29.5-7.51-7.7-2.25-20.08-6.35-27.5-9.11-7.43-2.77-22.05-9.17-32.5-14.24-10.45-5.07-23.5-11.84-29-15.06-5.5-3.21-14.95-9.21-21-13.33-6.05-4.12-16.63-11.86-23.5-17.21-6.88-5.35-17.56-14.29-23.75-19.87-6.31-5.68-12.46-10.4-14-10.72-1.51-0.32-3.28-0.69-3.93-0.81-0.66-0.12-3.02 0.14-5.25 0.58zm467.94 65.47c-4.04 5.96-10.71 15.34-14.83 20.84-4.12 5.5-10.45 13.6-14.05 18-3.61 4.4-11.75 13.81-18.09 20.9-6.35 7.1-16.94 18.09-23.54 24.42-6.6 6.33-17.4 16.02-24 21.53-6.6 5.52-17.85 14.39-25 19.71-7.15 5.33-18.85 13.52-26 18.2-7.15 4.68-20.2 12.57-29 17.54-8.8 4.97-17.8 10.32-20 11.89-2.2 1.57-4.81 4.42-5.81 6.33-1.3 2.51-1.67 4.87-1.32 8.48 0.26 2.75 1.34 6.12 2.39 7.5 1.05 1.37 8.4 7.79 16.32 14.26 10.33 8.43 15.84 12.23 19.42 13.39 3.11 1.01 6.7 1.42 9.5 1.09 2.47-0.29 6.52-1.54 9-2.79 2.52-1.27 10.65-8.26 18.46-15.86 7.67-7.47 19.33-19.22 25.9-26.09 6.56-6.88 16.93-18.5 23.04-25.82 6.1-7.33 15.15-18.9 20.1-25.71 4.95-6.81 12.65-18.14 17.12-25.18 4.47-7.03 11.55-19.09 15.73-26.79 4.19-7.7 9.64-18.61 12.13-24.25 2.49-5.64 6.58-16.21 9.09-23.5 2.51-7.29 6.05-18.84 7.85-25.67 1.8-6.83 3.2-12.6 3.1-12.83-0.09-0.23-3.48 4.45-7.51 10.41zm-86.01 52.5c-1.93 1.18-11.83 6.33-22 11.43-10.18 5.11-27.95 13.31-39.5 18.23-11.55 4.92-26.85 10.78-34 13.02-7.15 2.24-18.4 5.42-25 7.06-6.6 1.65-18.08 4.12-25.5 5.49-7.43 1.37-20.03 3.17-28 4-7.98 0.84-19.68 1.82-26 2.18-6.4 0.36-20.82 0.09-32.5-0.62l-21-1.27c-7.61 3.74-10.73 6.17-11.85 7.82-1.12 1.65-2.21 4.8-2.42 7-0.28 2.79 1.33 10.07 5.29 24 3.13 11 6.27 21.12 6.98 22.5 0.7 1.37 2.57 3.8 4.14 5.39 1.57 1.59 4.66 3.72 6.86 4.73 2.2 1.01 6.02 1.84 8.5 1.85 2.47 0.01 11.92-1.34 21-3 9.07-1.66 20.32-3.96 25-5.1 4.67-1.14 13.9-3.87 20.5-6.06 6.6-2.19 18.07-6.44 25.5-9.46 7.42-3.01 20.25-8.96 28.5-13.22 8.25-4.25 19.65-10.64 25.34-14.18 5.68-3.55 16.26-10.88 23.5-16.3 7.24-5.42 18.11-14.02 24.16-19.11 6.05-5.1 19.23-17.77 29.29-28.15 10.07-10.39 18.28-19.23 18.25-19.64-0.02-0.41-0.38-0.75-0.79-0.75-0.41 0.01-2.33 0.98-4.25 2.16z"/>
</svg>